<svg width="24" height="24" viewBox="0 0 24 24" fill="none" xmlns="http://www.w3.org/2000/svg">
<g id="cottage">
<mask id="mask0_33_3077" style="mask-type:alpha" maskUnits="userSpaceOnUse" x="0" y="0" width="24" height="24">
<rect id="Bounding box" width="24" height="24" fill="#D9D9D9"/>
</mask>
<g mask="url(#mask0_33_3077)">
<path id="cottage_2" d="M3.8385 21.0897V11.7147L2.0865 13.0597L0.778751 11.3102L3.8385 8.95421V5.77871H6.024V7.28796L11.994 2.74296L23.2153 11.3102L21.9018 13.0287L20.1495 11.7147V21.0897H3.8385ZM6.024 18.9102H10.8805V14.9102H13.0658V18.9102H17.97V10.0522L11.994 5.49496L6.024 10.0497V18.9102ZM3.8385 4.77871C3.8505 3.85771 4.17783 3.07463 4.8205 2.42946C5.46317 1.78446 6.2435 1.46196 7.1615 1.46196C7.482 1.46196 7.75075 1.35213 7.96775 1.13246C8.18458 0.912963 8.293 0.64363 8.293 0.324463H10.4843C10.4723 1.24546 10.145 2.02855 9.5025 2.67371C8.85983 3.31871 8.0795 3.64121 7.1615 3.64121C6.84083 3.64121 6.57208 3.75105 6.35525 3.97071C6.13842 4.19021 6.03 4.45955 6.03 4.77871H3.8385Z" fill="#FFF7F2"/>
</g>
</g>
</svg>
