<svg xmlns="http://www.w3.org/2000/svg" width="24" height="24" fill="none" viewBox="0 0 24 24"><g id="group_search"><mask id="mask0_33_3095" style="mask-type:alpha" width="24" height="24" x="0" y="0" maskUnits="userSpaceOnUse"><rect id="Bounding box" width="24" height="24" fill="#D9D9D9"/></mask><g mask="url(#mask0_33_3095)"><path id="group_search_2" fill="#FFF7F2" d="M1.79825 19.3078V17.0845C1.79825 16.5692 1.93125 16.1093 2.19725 15.7048C2.46325 15.3003 2.8185 14.9856 3.263 14.7608C4.21333 14.2959 5.16892 13.9375 6.12975 13.6855C7.09075 13.4337 8.14683 13.3078 9.298 13.3078C9.76733 13.3078 10.2279 13.3305 10.6797 13.376C11.1317 13.4215 11.5763 13.4917 12.0135 13.5865C11.8567 13.7992 11.721 14.0213 11.6065 14.2528C11.4918 14.4843 11.3942 14.725 11.3135 14.975C10.9815 14.9108 10.6481 14.8669 10.3132 14.8433C9.97858 14.8196 9.64017 14.8078 9.298 14.8078C8.30067 14.8078 7.36608 14.917 6.49425 15.1355C5.62242 15.3542 4.775 15.6757 3.952 16.1C3.725 16.2218 3.55925 16.3642 3.45475 16.527C3.35025 16.6898 3.298 16.8757 3.298 17.0845V17.8078H11.075C11.1288 18.0846 11.1948 18.3464 11.273 18.5933C11.3512 18.8401 11.4531 19.0783 11.5787 19.3078H1.79825ZM9.298 11.6923C8.3355 11.6923 7.51158 11.3496 6.82625 10.6643C6.14091 9.97876 5.79825 9.15476 5.79825 8.19226C5.79825 7.22976 6.14091 6.40584 6.82625 5.72051C7.51158 5.03501 8.3355 4.69226 9.298 4.69226C10.2605 4.69226 11.0845 5.03501 11.77 5.72051C12.4553 6.40584 12.798 7.22976 12.798 8.19226C12.798 9.15476 12.4553 9.97876 11.77 10.6643C11.0845 11.3496 10.2605 11.6923 9.298 11.6923ZM17.9325 8.19226C17.9325 9.15476 17.5898 9.97876 16.9045 10.6643C16.2192 11.3496 15.3952 11.6923 14.4327 11.6923C14.3199 11.6923 14.1763 11.6794 14.002 11.6538C13.8275 11.6281 13.6839 11.5999 13.5712 11.5693C13.9656 11.0951 14.2687 10.5691 14.4805 9.99126C14.6922 9.41343 14.798 8.81343 14.798 8.19126C14.798 7.56893 14.69 6.97118 14.474 6.39801C14.258 5.82501 13.9571 5.29751 13.5712 4.81551C13.7147 4.76418 13.8583 4.73084 14.002 4.71551C14.1455 4.70001 14.2891 4.69226 14.4327 4.69226C15.3952 4.69226 16.2192 5.03501 16.9045 5.72051C17.5898 6.40584 17.9325 7.22976 17.9325 8.19226ZM9.298 10.1923C9.848 10.1923 10.3188 9.99643 10.7105 9.60476C11.1022 9.21309 11.298 8.74226 11.298 8.19226C11.298 7.64226 11.1022 7.17143 10.7105 6.77976C10.3188 6.38809 9.848 6.19226 9.298 6.19226C8.748 6.19226 8.27717 6.38809 7.8855 6.77976C7.49383 7.17143 7.298 7.64226 7.298 8.19226C7.298 8.74226 7.49383 9.21309 7.8855 9.60476C8.27717 9.99643 8.748 10.1923 9.298 10.1923ZM16.8475 19C17.4582 19 17.967 18.8093 18.374 18.428C18.781 18.0465 18.9897 17.5193 19 16.8463C19.0103 16.2346 18.8068 15.7227 18.3895 15.3105C17.9722 14.8983 17.4582 14.6923 16.8475 14.6923C16.2368 14.6923 15.725 14.8988 15.312 15.312C14.8988 15.725 14.6922 16.2368 14.6922 16.8475C14.6922 17.4582 14.8988 17.9696 15.312 18.3818C15.725 18.7939 16.2368 19 16.8475 19ZM16.8462 20.5C15.8414 20.5 14.9812 20.1423 14.2657 19.427C13.5501 18.7117 13.1922 17.8518 13.1922 16.8473C13.1922 15.8428 13.5499 14.9824 14.2652 14.2663C14.9806 13.5503 15.8405 13.1923 16.845 13.1923C17.8497 13.1923 18.71 13.5501 19.426 14.2658C20.142 14.9813 20.5 15.8414 20.5 16.8463C20.5 17.2226 20.4493 17.5785 20.348 17.914C20.2467 18.2495 20.098 18.5608 19.902 18.848L22.4037 21.3403L21.3595 22.3943L18.8577 19.8923C18.5706 20.0948 18.2593 20.2467 17.924 20.348C17.5888 20.4493 17.2296 20.5 16.8462 20.5Z"/></g></g></svg>